<svg xmlns="http://www.w3.org/2000/svg" xmlns:xlink="http://www.w3.org/1999/xlink" width="500" zoomAndPan="magnify" viewBox="0 0 375 374.999991" height="500" preserveAspectRatio="xMidYMid meet" version="1.0"><defs><filter x="0%" y="0%" width="100%" height="100%" id="1dbd27b2a7"><feColorMatrix values="0 0 0 0 1 0 0 0 0 1 0 0 0 0 1 0 0 0 1 0" color-interpolation-filters="sRGB"/></filter><g/><clipPath id="c9b8a84fbe"><path d="M 274 124 L 324 124 L 324 175 L 274 175 Z M 274 124 " clip-rule="nonzero"/></clipPath><clipPath id="a2bbb6e422"><path d="M 299.066406 114.289062 L 334.066406 149.292969 L 299.066406 184.292969 L 264.0625 149.292969 Z M 299.066406 114.289062 " clip-rule="nonzero"/></clipPath><clipPath id="cc6375abf9"><path d="M 299.066406 114.289062 L 334.066406 149.292969 L 299.066406 184.292969 L 264.0625 149.292969 Z M 299.066406 114.289062 " clip-rule="nonzero"/></clipPath><clipPath id="6e2f203839"><path d="M 267 122 L 327 122 L 327 181 L 267 181 Z M 267 122 " clip-rule="nonzero"/></clipPath><clipPath id="8f35137316"><path d="M 299.066406 114.289062 L 334.066406 149.292969 L 299.066406 184.292969 L 264.0625 149.292969 Z M 299.066406 114.289062 " clip-rule="nonzero"/></clipPath><clipPath id="12af25e93d"><path d="M 299.066406 114.289062 L 334.066406 149.292969 L 299.066406 184.292969 L 264.0625 149.292969 Z M 299.066406 114.289062 " clip-rule="nonzero"/></clipPath><mask id="adb1a57930"><g filter="url(#1dbd27b2a7)"><rect x="-37.5" width="450" fill="#000000" y="-37.499999" height="449.999989" fill-opacity="0.07"/></g></mask><clipPath id="d7cf8d3eee"><path d="M 9 9 L 51 9 L 51 51 L 9 51 Z M 9 9 " clip-rule="nonzero"/></clipPath><clipPath id="7e1307ac1c"><path d="M 32.066406 -7.710938 L 67.066406 27.292969 L 32.066406 62.292969 L -2.9375 27.292969 Z M 32.066406 -7.710938 " clip-rule="nonzero"/></clipPath><clipPath id="9554763738"><path d="M 32.066406 -7.710938 L 67.066406 27.292969 L 32.066406 62.292969 L -2.9375 27.292969 Z M 32.066406 -7.710938 " clip-rule="nonzero"/></clipPath><clipPath id="b43e7822aa"><rect x="0" width="60" y="0" height="59"/></clipPath><clipPath id="15fa23ce9b"><path d="M 270 129 L 319 129 L 319 178 L 270 178 Z M 270 129 " clip-rule="nonzero"/></clipPath><clipPath id="8d7b5955e1"><path d="M 299.066406 114.289062 L 334.066406 149.292969 L 299.066406 184.292969 L 264.0625 149.292969 Z M 299.066406 114.289062 " clip-rule="nonzero"/></clipPath><clipPath id="78e03ba8f7"><path d="M 299.066406 114.289062 L 334.066406 149.292969 L 299.066406 184.292969 L 264.0625 149.292969 Z M 299.066406 114.289062 " clip-rule="nonzero"/></clipPath><mask id="4b0d76c20d"><g filter="url(#1dbd27b2a7)"><rect x="-37.5" width="450" fill="#000000" y="-37.499999" height="449.999989" fill-opacity="0.07"/></g></mask><clipPath id="34fbc5054b"><path d="M 8 7 L 42 7 L 42 42 L 8 42 Z M 8 7 " clip-rule="nonzero"/></clipPath><clipPath id="fed82d1a69"><path d="M 29.066406 -14.710938 L 64.066406 20.292969 L 29.066406 55.292969 L -5.9375 20.292969 Z M 29.066406 -14.710938 " clip-rule="nonzero"/></clipPath><clipPath id="fd657451eb"><path d="M 29.066406 -14.710938 L 64.066406 20.292969 L 29.066406 55.292969 L -5.9375 20.292969 Z M 29.066406 -14.710938 " clip-rule="nonzero"/></clipPath><clipPath id="1aa1929a46"><rect x="0" width="49" y="0" height="49"/></clipPath><clipPath id="5887ce2733"><path d="M 274 136 L 312 136 L 312 175 L 274 175 Z M 274 136 " clip-rule="nonzero"/></clipPath><clipPath id="9847edb6fb"><path d="M 299.066406 114.289062 L 334.066406 149.292969 L 299.066406 184.292969 L 264.0625 149.292969 Z M 299.066406 114.289062 " clip-rule="nonzero"/></clipPath><clipPath id="21e15edf66"><path d="M 299.066406 114.289062 L 334.066406 149.292969 L 299.066406 184.292969 L 264.0625 149.292969 Z M 299.066406 114.289062 " clip-rule="nonzero"/></clipPath><mask id="d7f1ac0c57"><g filter="url(#1dbd27b2a7)"><rect x="-37.5" width="450" fill="#000000" y="-37.499999" height="449.999989" fill-opacity="0.07"/></g></mask><clipPath id="f866f2d7db"><path d="M 5 6 L 33 6 L 33 33 L 5 33 Z M 5 6 " clip-rule="nonzero"/></clipPath><clipPath id="e541e96100"><path d="M 25.066406 -21.710938 L 60.066406 13.292969 L 25.066406 48.292969 L -9.9375 13.292969 Z M 25.066406 -21.710938 " clip-rule="nonzero"/></clipPath><clipPath id="a8783be3a5"><path d="M 25.066406 -21.710938 L 60.066406 13.292969 L 25.066406 48.292969 L -9.9375 13.292969 Z M 25.066406 -21.710938 " clip-rule="nonzero"/></clipPath><clipPath id="a7dc2b0b38"><rect x="0" width="38" y="0" height="39"/></clipPath><clipPath id="44919730a4"><path d="M 276 143 L 306 143 L 306 172 L 276 172 Z M 276 143 " clip-rule="nonzero"/></clipPath><clipPath id="a7515ace91"><path d="M 299.066406 114.289062 L 334.066406 149.292969 L 299.066406 184.292969 L 264.0625 149.292969 Z M 299.066406 114.289062 " clip-rule="nonzero"/></clipPath><clipPath id="234dd5316d"><path d="M 299.066406 114.289062 L 334.066406 149.292969 L 299.066406 184.292969 L 264.0625 149.292969 Z M 299.066406 114.289062 " clip-rule="nonzero"/></clipPath><mask id="39c8ef2ef0"><g filter="url(#1dbd27b2a7)"><rect x="-37.5" width="450" fill="#000000" y="-37.499999" height="449.999989" fill-opacity="0.09"/></g></mask><clipPath id="b3aa49fae6"><path d="M 5 4 L 26 4 L 26 25 L 5 25 Z M 5 4 " clip-rule="nonzero"/></clipPath><clipPath id="b81db5d383"><path d="M 23.066406 -28.710938 L 58.066406 6.292969 L 23.066406 41.292969 L -11.9375 6.292969 Z M 23.066406 -28.710938 " clip-rule="nonzero"/></clipPath><clipPath id="63b9e3141a"><path d="M 23.066406 -28.710938 L 58.066406 6.292969 L 23.066406 41.292969 L -11.9375 6.292969 Z M 23.066406 -28.710938 " clip-rule="nonzero"/></clipPath><clipPath id="e1be2a63ab"><rect x="0" width="30" y="0" height="29"/></clipPath></defs><g clip-path="url(#c9b8a84fbe)"><g clip-path="url(#a2bbb6e422)"><g clip-path="url(#cc6375abf9)"><path fill="#8c52ff" d="M 316.65625 167.066406 C 316.082031 167.644531 315.480469 168.191406 314.847656 168.707031 C 314.21875 169.222656 313.566406 169.707031 312.886719 170.160156 C 312.210938 170.613281 311.511719 171.03125 310.792969 171.414062 C 310.074219 171.800781 309.339844 172.148438 308.585938 172.460938 C 307.832031 172.773438 307.066406 173.046875 306.289062 173.28125 C 305.507812 173.519531 304.71875 173.714844 303.917969 173.875 C 303.121094 174.035156 302.316406 174.152344 301.503906 174.234375 C 300.695312 174.3125 299.878906 174.355469 299.066406 174.355469 C 298.25 174.355469 297.4375 174.3125 296.628906 174.234375 C 295.816406 174.152344 295.011719 174.035156 294.210938 173.875 C 293.414062 173.714844 292.625 173.519531 291.84375 173.28125 C 291.0625 173.046875 290.296875 172.773438 289.546875 172.460938 C 288.792969 172.148438 288.054688 171.800781 287.335938 171.414062 C 286.621094 171.03125 285.921875 170.613281 285.242188 170.160156 C 284.566406 169.707031 283.914062 169.222656 283.28125 168.707031 C 282.652344 168.191406 282.050781 167.644531 281.472656 167.066406 C 280.898438 166.492188 280.351562 165.886719 279.835938 165.257812 C 279.316406 164.628906 278.832031 163.972656 278.378906 163.296875 C 277.925781 162.621094 277.507812 161.921875 277.125 161.203125 C 276.742188 160.484375 276.390625 159.75 276.082031 158.996094 C 275.769531 158.242188 275.496094 157.476562 275.257812 156.695312 C 275.023438 155.917969 274.824219 155.128906 274.664062 154.328125 C 274.507812 153.527344 274.386719 152.722656 274.304688 151.914062 C 274.226562 151.101562 274.1875 150.289062 274.1875 149.476562 C 274.1875 148.660156 274.226562 147.847656 274.304688 147.035156 C 274.386719 146.226562 274.507812 145.421875 274.664062 144.621094 C 274.824219 143.820312 275.023438 143.03125 275.257812 142.253906 C 275.496094 141.472656 275.769531 140.707031 276.082031 139.953125 C 276.390625 139.203125 276.742188 138.464844 277.125 137.746094 C 277.507812 137.027344 277.925781 136.332031 278.378906 135.652344 C 278.832031 134.976562 279.316406 134.320312 279.835938 133.691406 C 280.351562 133.0625 280.898438 132.457031 281.472656 131.882812 C 282.050781 131.304688 282.652344 130.761719 283.28125 130.242188 C 283.914062 129.726562 284.566406 129.242188 285.242188 128.789062 C 285.921875 128.335938 286.621094 127.917969 287.335938 127.535156 C 288.054688 127.148438 288.792969 126.800781 289.546875 126.488281 C 290.296875 126.179688 291.0625 125.902344 291.84375 125.667969 C 292.625 125.429688 293.414062 125.234375 294.210938 125.074219 C 295.011719 124.914062 295.816406 124.796875 296.628906 124.714844 C 297.4375 124.636719 298.25 124.597656 299.066406 124.597656 C 299.878906 124.597656 300.695312 124.636719 301.503906 124.714844 C 302.316406 124.796875 303.121094 124.914062 303.917969 125.074219 C 304.71875 125.234375 305.507812 125.429688 306.289062 125.667969 C 307.066406 125.902344 307.832031 126.179688 308.585938 126.488281 C 309.339844 126.800781 310.074219 127.148438 310.792969 127.535156 C 311.511719 127.917969 312.210938 128.335938 312.886719 128.789062 C 313.566406 129.242188 314.21875 129.726562 314.847656 130.242188 C 315.480469 130.761719 316.082031 131.304688 316.65625 131.882812 C 317.234375 132.457031 317.78125 133.0625 318.296875 133.691406 C 318.8125 134.320312 319.300781 134.976562 319.75 135.652344 C 320.203125 136.332031 320.621094 137.027344 321.007812 137.746094 C 321.390625 138.464844 321.738281 139.203125 322.050781 139.953125 C 322.363281 140.707031 322.636719 141.472656 322.875 142.253906 C 323.109375 143.03125 323.308594 143.820312 323.464844 144.621094 C 323.625 145.421875 323.746094 146.226562 323.824219 147.035156 C 323.90625 147.847656 323.945312 148.660156 323.945312 149.476562 C 323.945312 150.289062 323.90625 151.101562 323.824219 151.914062 C 323.746094 152.722656 323.625 153.527344 323.464844 154.328125 C 323.308594 155.128906 323.109375 155.917969 322.875 156.695312 C 322.636719 157.476562 322.363281 158.242188 322.050781 158.996094 C 321.738281 159.75 321.390625 160.484375 321.007812 161.203125 C 320.621094 161.921875 320.203125 162.621094 319.75 163.296875 C 319.300781 163.972656 318.8125 164.628906 318.296875 165.257812 C 317.78125 165.886719 317.234375 166.492188 316.65625 167.066406 Z M 316.65625 167.066406 " fill-opacity="1" fill-rule="nonzero"/></g></g></g><g clip-path="url(#6e2f203839)"><g clip-path="url(#8f35137316)"><g clip-path="url(#12af25e93d)"><g mask="url(#adb1a57930)"><g transform="matrix(1, 0, 0, 1, 267, 122)"><g clip-path="url(#b43e7822aa)"><g clip-path="url(#d7cf8d3eee)"><g clip-path="url(#7e1307ac1c)"><g clip-path="url(#9554763738)"><path fill="#231f20" d="M 44.457031 44.214844 C 43.980469 44.691406 43.480469 45.144531 42.960938 45.574219 C 42.4375 46 41.898438 46.402344 41.335938 46.777344 C 40.773438 47.152344 40.195312 47.5 39.601562 47.816406 C 39.007812 48.132812 38.398438 48.421875 37.773438 48.679688 C 37.152344 48.9375 36.515625 49.164062 35.871094 49.363281 C 35.226562 49.558594 34.570312 49.722656 33.910156 49.851562 C 33.25 49.984375 32.582031 50.082031 31.910156 50.148438 C 31.238281 50.214844 30.566406 50.25 29.890625 50.25 C 29.214844 50.25 28.542969 50.214844 27.871094 50.148438 C 27.199219 50.082031 26.535156 49.984375 25.871094 49.851562 C 25.210938 49.722656 24.558594 49.558594 23.910156 49.363281 C 23.265625 49.164062 22.632812 48.9375 22.007812 48.679688 C 21.386719 48.421875 20.777344 48.132812 20.179688 47.816406 C 19.585938 47.5 19.007812 47.152344 18.445312 46.777344 C 17.886719 46.402344 17.34375 46 16.824219 45.574219 C 16.300781 45.144531 15.800781 44.691406 15.324219 44.214844 C 14.847656 43.738281 14.394531 43.238281 13.96875 42.71875 C 13.539062 42.195312 13.136719 41.65625 12.761719 41.09375 C 12.386719 40.53125 12.042969 39.953125 11.722656 39.359375 C 11.40625 38.765625 11.117188 38.15625 10.859375 37.53125 C 10.601562 36.910156 10.375 36.273438 10.179688 35.628906 C 9.984375 34.984375 9.820312 34.328125 9.6875 33.667969 C 9.554688 33.007812 9.457031 32.339844 9.390625 31.667969 C 9.324219 30.996094 9.292969 30.324219 9.292969 29.648438 C 9.292969 28.972656 9.324219 28.300781 9.390625 27.628906 C 9.457031 26.957031 9.554688 26.292969 9.6875 25.628906 C 9.820312 24.96875 9.984375 24.316406 10.179688 23.667969 C 10.375 23.023438 10.601562 22.390625 10.859375 21.765625 C 11.117188 21.144531 11.40625 20.535156 11.722656 19.9375 C 12.042969 19.34375 12.386719 18.765625 12.761719 18.203125 C 13.136719 17.644531 13.539062 17.101562 13.96875 16.582031 C 14.394531 16.058594 14.847656 15.558594 15.324219 15.082031 C 15.800781 14.605469 16.300781 14.152344 16.824219 13.726562 C 17.34375 13.296875 17.886719 12.894531 18.445312 12.519531 C 19.007812 12.144531 19.585938 11.800781 20.179688 11.480469 C 20.777344 11.164062 21.386719 10.875 22.007812 10.617188 C 22.632812 10.359375 23.265625 10.132812 23.910156 9.9375 C 24.558594 9.742188 25.210938 9.578125 25.871094 9.445312 C 26.535156 9.3125 27.199219 9.214844 27.871094 9.148438 C 28.542969 9.082031 29.214844 9.050781 29.890625 9.050781 C 30.566406 9.050781 31.238281 9.082031 31.910156 9.148438 C 32.582031 9.214844 33.25 9.3125 33.910156 9.445312 C 34.570312 9.578125 35.226562 9.742188 35.871094 9.9375 C 36.515625 10.132812 37.152344 10.359375 37.773438 10.617188 C 38.398438 10.875 39.007812 11.164062 39.601562 11.480469 C 40.195312 11.800781 40.773438 12.144531 41.335938 12.519531 C 41.898438 12.894531 42.4375 13.296875 42.960938 13.726562 C 43.480469 14.152344 43.980469 14.605469 44.457031 15.082031 C 44.933594 15.558594 45.386719 16.058594 45.816406 16.582031 C 46.242188 17.101562 46.644531 17.644531 47.019531 18.203125 C 47.394531 18.765625 47.742188 19.34375 48.058594 19.9375 C 48.375 20.535156 48.664062 21.144531 48.921875 21.765625 C 49.179688 22.390625 49.40625 23.023438 49.605469 23.667969 C 49.800781 24.316406 49.964844 24.96875 50.09375 25.628906 C 50.226562 26.292969 50.324219 26.957031 50.390625 27.628906 C 50.457031 28.300781 50.492188 28.972656 50.492188 29.648438 C 50.492188 30.324219 50.457031 30.996094 50.390625 31.667969 C 50.324219 32.339844 50.226562 33.007812 50.09375 33.667969 C 49.964844 34.328125 49.800781 34.984375 49.605469 35.628906 C 49.40625 36.273438 49.179688 36.910156 48.921875 37.53125 C 48.664062 38.15625 48.375 38.765625 48.058594 39.359375 C 47.742188 39.953125 47.394531 40.53125 47.019531 41.09375 C 46.644531 41.65625 46.242188 42.195312 45.816406 42.71875 C 45.386719 43.238281 44.933594 43.738281 44.457031 44.214844 Z M 44.457031 44.214844 " fill-opacity="1" fill-rule="nonzero"/></g></g></g></g></g></g></g></g></g><g clip-path="url(#15fa23ce9b)"><g clip-path="url(#8d7b5955e1)"><g clip-path="url(#78e03ba8f7)"><g mask="url(#4b0d76c20d)"><g transform="matrix(1, 0, 0, 1, 270, 129)"><g clip-path="url(#1aa1929a46)"><g clip-path="url(#34fbc5054b)"><g clip-path="url(#fed82d1a69)"><g clip-path="url(#fd657451eb)"><path fill="#231f20" d="M 36.792969 36.519531 C 36.402344 36.90625 35.996094 37.277344 35.570312 37.625 C 35.144531 37.976562 34.703125 38.304688 34.246094 38.609375 C 33.789062 38.914062 33.316406 39.199219 32.832031 39.457031 C 32.34375 39.714844 31.847656 39.953125 31.339844 40.164062 C 30.832031 40.371094 30.3125 40.558594 29.785156 40.71875 C 29.257812 40.878906 28.726562 41.011719 28.1875 41.117188 C 27.644531 41.226562 27.101562 41.308594 26.554688 41.359375 C 26.007812 41.414062 25.457031 41.441406 24.90625 41.441406 C 24.355469 41.441406 23.808594 41.414062 23.257812 41.359375 C 22.710938 41.308594 22.167969 41.226562 21.628906 41.117188 C 21.089844 41.011719 20.554688 40.878906 20.027344 40.71875 C 19.5 40.558594 18.984375 40.371094 18.476562 40.164062 C 17.964844 39.953125 17.46875 39.714844 16.984375 39.457031 C 16.5 39.199219 16.027344 38.914062 15.570312 38.609375 C 15.109375 38.304688 14.667969 37.976562 14.242188 37.625 C 13.820312 37.277344 13.410156 36.90625 13.023438 36.519531 C 12.632812 36.128906 12.261719 35.722656 11.914062 35.296875 C 11.566406 34.871094 11.238281 34.429688 10.929688 33.972656 C 10.625 33.515625 10.34375 33.042969 10.082031 32.558594 C 9.824219 32.070312 9.589844 31.574219 9.378906 31.066406 C 9.167969 30.558594 8.980469 30.039062 8.824219 29.511719 C 8.664062 28.984375 8.527344 28.453125 8.421875 27.914062 C 8.3125 27.371094 8.234375 26.828125 8.179688 26.28125 C 8.125 25.734375 8.097656 25.183594 8.097656 24.632812 C 8.097656 24.082031 8.125 23.535156 8.179688 22.984375 C 8.234375 22.4375 8.3125 21.894531 8.421875 21.355469 C 8.527344 20.816406 8.664062 20.28125 8.824219 19.753906 C 8.980469 19.226562 9.167969 18.710938 9.378906 18.203125 C 9.589844 17.691406 9.824219 17.195312 10.082031 16.710938 C 10.34375 16.226562 10.625 15.753906 10.929688 15.296875 C 11.238281 14.835938 11.566406 14.394531 11.914062 13.96875 C 12.261719 13.546875 12.632812 13.136719 13.023438 12.75 C 13.410156 12.359375 13.820312 11.988281 14.242188 11.640625 C 14.667969 11.292969 15.109375 10.964844 15.570312 10.65625 C 16.027344 10.351562 16.5 10.070312 16.984375 9.808594 C 17.46875 9.550781 17.964844 9.316406 18.476562 9.105469 C 18.984375 8.894531 19.5 8.707031 20.027344 8.550781 C 20.554688 8.390625 21.089844 8.253906 21.628906 8.148438 C 22.167969 8.039062 22.710938 7.960938 23.257812 7.90625 C 23.808594 7.851562 24.355469 7.824219 24.90625 7.824219 C 25.457031 7.824219 26.007812 7.851562 26.554688 7.90625 C 27.101562 7.960938 27.644531 8.039062 28.1875 8.148438 C 28.726562 8.253906 29.257812 8.390625 29.785156 8.550781 C 30.3125 8.707031 30.832031 8.894531 31.339844 9.105469 C 31.847656 9.316406 32.34375 9.550781 32.832031 9.808594 C 33.316406 10.070312 33.789062 10.351562 34.246094 10.65625 C 34.703125 10.964844 35.144531 11.292969 35.570312 11.640625 C 35.996094 11.988281 36.402344 12.359375 36.792969 12.75 C 37.179688 13.136719 37.550781 13.546875 37.898438 13.96875 C 38.25 14.394531 38.578125 14.835938 38.882812 15.296875 C 39.1875 15.753906 39.472656 16.226562 39.730469 16.710938 C 39.988281 17.195312 40.226562 17.691406 40.4375 18.203125 C 40.644531 18.710938 40.832031 19.226562 40.992188 19.753906 C 41.152344 20.28125 41.285156 20.816406 41.390625 21.355469 C 41.5 21.894531 41.582031 22.4375 41.632812 22.984375 C 41.6875 23.535156 41.714844 24.082031 41.714844 24.632812 C 41.714844 25.183594 41.6875 25.734375 41.632812 26.28125 C 41.582031 26.828125 41.5 27.371094 41.390625 27.914062 C 41.285156 28.453125 41.152344 28.984375 40.992188 29.511719 C 40.832031 30.039062 40.644531 30.558594 40.4375 31.066406 C 40.226562 31.574219 39.988281 32.070312 39.730469 32.558594 C 39.472656 33.042969 39.1875 33.515625 38.882812 33.972656 C 38.578125 34.429688 38.25 34.871094 37.898438 35.296875 C 37.550781 35.722656 37.179688 36.128906 36.792969 36.519531 Z M 36.792969 36.519531 " fill-opacity="1" fill-rule="nonzero"/></g></g></g></g></g></g></g></g></g><g clip-path="url(#5887ce2733)"><g clip-path="url(#9847edb6fb)"><g clip-path="url(#21e15edf66)"><g mask="url(#d7f1ac0c57)"><g transform="matrix(1, 0, 0, 1, 274, 136)"><g clip-path="url(#a7dc2b0b38)"><g clip-path="url(#f866f2d7db)"><g clip-path="url(#e541e96100)"><g clip-path="url(#a8783be3a5)"><path fill="#231f20" d="M 28.195312 28.890625 C 27.589844 29.5 26.925781 30.046875 26.210938 30.523438 C 25.492188 31.003906 24.738281 31.40625 23.941406 31.734375 C 23.144531 32.066406 22.324219 32.3125 21.480469 32.480469 C 20.636719 32.648438 19.785156 32.734375 18.921875 32.734375 C 18.0625 32.734375 17.207031 32.648438 16.363281 32.480469 C 15.519531 32.3125 14.699219 32.066406 13.902344 31.734375 C 13.109375 31.40625 12.351562 31.003906 11.636719 30.523438 C 10.917969 30.046875 10.257812 29.5 9.648438 28.890625 C 9.039062 28.285156 8.496094 27.621094 8.015625 26.90625 C 7.539062 26.1875 7.132812 25.433594 6.804688 24.636719 C 6.476562 23.839844 6.226562 23.019531 6.058594 22.175781 C 5.890625 21.332031 5.804688 20.480469 5.804688 19.617188 C 5.804688 18.757812 5.890625 17.902344 6.058594 17.058594 C 6.226562 16.214844 6.476562 15.394531 6.804688 14.597656 C 7.132812 13.804688 7.539062 13.046875 8.015625 12.332031 C 8.496094 11.613281 9.039062 10.953125 9.648438 10.34375 C 10.257812 9.734375 10.917969 9.191406 11.636719 8.710938 C 12.351562 8.234375 13.109375 7.828125 13.902344 7.5 C 14.699219 7.171875 15.519531 6.921875 16.363281 6.753906 C 17.207031 6.585938 18.0625 6.5 18.921875 6.5 C 19.785156 6.5 20.636719 6.585938 21.480469 6.753906 C 22.324219 6.921875 23.144531 7.171875 23.941406 7.5 C 24.738281 7.828125 25.492188 8.234375 26.210938 8.710938 C 26.925781 9.191406 27.589844 9.734375 28.195312 10.34375 C 28.804688 10.953125 29.351562 11.613281 29.828125 12.332031 C 30.308594 13.046875 30.710938 13.804688 31.039062 14.597656 C 31.371094 15.394531 31.617188 16.214844 31.785156 17.058594 C 31.953125 17.902344 32.039062 18.757812 32.039062 19.617188 C 32.039062 20.480469 31.953125 21.332031 31.785156 22.175781 C 31.617188 23.019531 31.371094 23.839844 31.039062 24.636719 C 30.710938 25.433594 30.308594 26.1875 29.828125 26.90625 C 29.351562 27.621094 28.804688 28.285156 28.195312 28.890625 Z M 28.195312 28.890625 " fill-opacity="1" fill-rule="nonzero"/></g></g></g></g></g></g></g></g></g><g clip-path="url(#44919730a4)"><g clip-path="url(#a7515ace91)"><g clip-path="url(#234dd5316d)"><g mask="url(#39c8ef2ef0)"><g transform="matrix(1, 0, 0, 1, 276, 143)"><g clip-path="url(#e1be2a63ab)"><g clip-path="url(#b3aa49fae6)"><g clip-path="url(#b81db5d383)"><g clip-path="url(#63b9e3141a)"><path fill="#231f20" d="M 22.234375 21.265625 C 21.777344 21.722656 21.277344 22.132812 20.738281 22.492188 C 20.199219 22.855469 19.632812 23.15625 19.03125 23.40625 C 18.433594 23.652344 17.816406 23.839844 17.179688 23.96875 C 16.546875 24.09375 15.902344 24.15625 15.253906 24.15625 C 14.605469 24.15625 13.964844 24.09375 13.328125 23.96875 C 12.691406 23.839844 12.074219 23.652344 11.476562 23.40625 C 10.878906 23.15625 10.308594 22.855469 9.769531 22.492188 C 9.230469 22.132812 8.734375 21.722656 8.273438 21.265625 C 7.816406 20.808594 7.40625 20.308594 7.046875 19.769531 C 6.6875 19.230469 6.382812 18.664062 6.132812 18.0625 C 5.886719 17.464844 5.699219 16.847656 5.574219 16.210938 C 5.445312 15.574219 5.382812 14.933594 5.382812 14.285156 C 5.382812 13.636719 5.445312 12.996094 5.574219 12.359375 C 5.699219 11.722656 5.886719 11.105469 6.132812 10.507812 C 6.382812 9.910156 6.6875 9.339844 7.046875 8.800781 C 7.40625 8.261719 7.816406 7.761719 8.273438 7.304688 C 8.734375 6.847656 9.230469 6.4375 9.769531 6.078125 C 10.308594 5.71875 10.878906 5.414062 11.476562 5.164062 C 12.074219 4.917969 12.691406 4.730469 13.328125 4.601562 C 13.964844 4.476562 14.605469 4.414062 15.253906 4.414062 C 15.902344 4.414062 16.546875 4.476562 17.179688 4.601562 C 17.816406 4.730469 18.433594 4.917969 19.03125 5.164062 C 19.632812 5.414062 20.199219 5.71875 20.738281 6.078125 C 21.277344 6.4375 21.777344 6.847656 22.234375 7.304688 C 22.695312 7.761719 23.101562 8.261719 23.464844 8.800781 C 23.824219 9.339844 24.128906 9.910156 24.375 10.507812 C 24.625 11.105469 24.8125 11.722656 24.9375 12.359375 C 25.0625 12.996094 25.125 13.636719 25.125 14.285156 C 25.125 14.933594 25.0625 15.574219 24.9375 16.210938 C 24.8125 16.847656 24.625 17.464844 24.375 18.0625 C 24.128906 18.664062 23.824219 19.230469 23.464844 19.769531 C 23.101562 20.308594 22.695312 20.808594 22.234375 21.265625 Z M 22.234375 21.265625 " fill-opacity="1" fill-rule="nonzero"/></g></g></g></g></g></g></g></g></g><g fill="#231f20" fill-opacity="1"><g transform="translate(39.122329, 212.077325)"><g><path d="M 35.5 -27.109375 C 38.394531 -23.929688 39.84375 -20.046875 39.84375 -15.453125 C 39.84375 -10.867188 38.394531 -6.992188 35.5 -3.828125 C 32.601562 -0.671875 28.921875 0.90625 24.453125 0.90625 C 20.347656 0.90625 16.96875 -0.5625 14.3125 -3.5 L 14.1875 -3.5 L 14.1875 0 L 3.625 0 L 3.625 -51.921875 L 14.3125 -51.921875 L 14.3125 -28.015625 C 16.96875 -30.585938 20.347656 -31.875 24.453125 -31.875 C 28.921875 -31.875 32.601562 -30.285156 35.5 -27.109375 Z M 26.5 -10.234375 C 27.832031 -11.578125 28.5 -13.316406 28.5 -15.453125 C 28.5 -17.585938 27.800781 -19.335938 26.40625 -20.703125 C 25.019531 -22.078125 23.300781 -22.765625 21.25 -22.765625 C 19.238281 -22.765625 17.535156 -22.078125 16.140625 -20.703125 C 14.753906 -19.335938 14.0625 -17.585938 14.0625 -15.453125 C 14.0625 -13.359375 14.734375 -11.628906 16.078125 -10.265625 C 17.429688 -8.898438 19.15625 -8.21875 21.25 -8.21875 C 23.425781 -8.21875 25.175781 -8.890625 26.5 -10.234375 Z M 26.5 -10.234375 "/></g></g></g><g fill="#231f20" fill-opacity="1"><g transform="translate(80.358399, 212.077325)"><g><path d="M 27.109375 -30.96875 L 39.421875 -30.96875 L 15.09375 15.703125 L 2.78125 15.703125 L 13.46875 -4.828125 L -1.203125 -30.96875 L 11.109375 -30.96875 L 19.75 -15.09375 Z M 27.109375 -30.96875 "/></g></g></g><g fill="#231f20" fill-opacity="1"><g transform="translate(118.575724, 212.077325)"><g><path d="M 5.4375 -30.96875 L 5.4375 -42.5 L 16.125 -42.5 L 16.125 -30.96875 L 22.640625 -30.96875 L 22.640625 -22.828125 L 16.125 -22.828125 L 16.125 -12.984375 C 16.125 -10.117188 16.925781 -8.6875 18.53125 -8.6875 C 18.9375 -8.6875 19.359375 -8.765625 19.796875 -8.921875 C 20.242188 -9.085938 20.585938 -9.253906 20.828125 -9.421875 L 21.1875 -9.65625 L 23.84375 -1.03125 C 21.550781 0.257812 18.9375 0.90625 16 0.90625 C 13.988281 0.90625 12.257812 0.554688 10.8125 -0.140625 C 9.363281 -0.847656 8.265625 -1.796875 7.515625 -2.984375 C 6.773438 -4.171875 6.242188 -5.414062 5.921875 -6.71875 C 5.597656 -8.03125 5.4375 -9.429688 5.4375 -10.921875 L 5.4375 -22.828125 L 0.96875 -22.828125 L 0.96875 -30.96875 Z M 5.4375 -30.96875 "/></g></g></g><g fill="#231f20" fill-opacity="1"><g transform="translate(142.423813, 212.077325)"><g><path d="M 34.953125 -14 L 12.5 -14 C 12.5 -11.832031 13.203125 -10.222656 14.609375 -9.171875 C 16.015625 -8.128906 17.546875 -7.609375 19.203125 -7.609375 C 20.929688 -7.609375 22.296875 -7.835938 23.296875 -8.296875 C 24.304688 -8.765625 25.457031 -9.679688 26.75 -11.046875 L 34.46875 -7.1875 C 31.25 -1.789062 25.898438 0.90625 18.421875 0.90625 C 13.742188 0.90625 9.734375 -0.691406 6.390625 -3.890625 C 3.054688 -7.085938 1.390625 -10.941406 1.390625 -15.453125 C 1.390625 -19.960938 3.054688 -23.828125 6.390625 -27.046875 C 9.734375 -30.265625 13.742188 -31.875 18.421875 -31.875 C 23.328125 -31.875 27.316406 -30.453125 30.390625 -27.609375 C 33.472656 -24.773438 35.015625 -20.722656 35.015625 -15.453125 C 35.015625 -14.734375 34.992188 -14.25 34.953125 -14 Z M 12.796875 -19.921875 L 24.578125 -19.921875 C 24.328125 -21.535156 23.6875 -22.773438 22.65625 -23.640625 C 21.632812 -24.503906 20.320312 -24.9375 18.71875 -24.9375 C 16.945312 -24.9375 15.535156 -24.472656 14.484375 -23.546875 C 13.441406 -22.617188 12.878906 -21.410156 12.796875 -19.921875 Z M 12.796875 -19.921875 "/></g></g></g><g fill="#231f20" fill-opacity="1"><g transform="translate(178.829882, 212.077325)"><g><path d="M 3.625 -49.8125 L 19.078125 -49.8125 C 23.742188 -49.8125 27.460938 -48.8125 30.234375 -46.8125 C 33.015625 -44.820312 34.40625 -41.59375 34.40625 -37.125 C 34.40625 -32.132812 32.332031 -28.570312 28.1875 -26.4375 C 35.28125 -25.195312 38.828125 -21.015625 38.828125 -13.890625 C 38.828125 -9.703125 37.375 -6.335938 34.46875 -3.796875 C 31.570312 -1.265625 27.585938 0 22.515625 0 L 3.625 0 Z M 14.96875 -30.3125 L 15.875 -30.3125 C 18.414062 -30.3125 20.304688 -30.753906 21.546875 -31.640625 C 22.796875 -32.523438 23.421875 -33.972656 23.421875 -35.984375 C 23.421875 -39.367188 20.90625 -41.0625 15.875 -41.0625 L 14.96875 -41.0625 Z M 14.96875 -8.75 L 18.53125 -8.75 C 24.082031 -8.75 26.859375 -10.601562 26.859375 -14.3125 C 26.859375 -16.519531 26.164062 -18.109375 24.78125 -19.078125 C 23.394531 -20.046875 21.3125 -20.53125 18.53125 -20.53125 L 14.96875 -20.53125 Z M 14.96875 -8.75 "/></g></g></g><g fill="#231f20" fill-opacity="1"><g transform="translate(219.039577, 212.077325)"><g><path d="M 3.625 0 L 3.625 -51.921875 L 14.3125 -51.921875 L 14.3125 0 Z M 3.625 0 "/></g></g></g><g fill="#231f20" fill-opacity="1"><g transform="translate(236.970934, 212.077325)"><g><path d="M 6.546875 -3.671875 C 3.109375 -6.734375 1.390625 -10.660156 1.390625 -15.453125 C 1.390625 -20.242188 3.179688 -24.175781 6.765625 -27.25 C 10.347656 -30.332031 14.773438 -31.875 20.046875 -31.875 C 25.234375 -31.875 29.609375 -30.320312 33.171875 -27.21875 C 36.734375 -24.125 38.515625 -20.203125 38.515625 -15.453125 C 38.515625 -10.703125 36.773438 -6.785156 33.296875 -3.703125 C 29.816406 -0.628906 25.398438 0.90625 20.046875 0.90625 C 14.492188 0.90625 9.992188 -0.617188 6.546875 -3.671875 Z M 14.8125 -20.703125 C 13.425781 -19.335938 12.734375 -17.585938 12.734375 -15.453125 C 12.734375 -13.316406 13.394531 -11.578125 14.71875 -10.234375 C 16.050781 -8.890625 17.804688 -8.21875 19.984375 -8.21875 C 22.078125 -8.21875 23.796875 -8.898438 25.140625 -10.265625 C 26.492188 -11.628906 27.171875 -13.359375 27.171875 -15.453125 C 27.171875 -17.585938 26.472656 -19.335938 25.078125 -20.703125 C 23.691406 -22.078125 21.992188 -22.765625 19.984375 -22.765625 C 17.929688 -22.765625 16.207031 -22.078125 14.8125 -20.703125 Z M 14.8125 -20.703125 "/></g></g></g><g fill="#231f20" fill-opacity="1"><g transform="translate(276.878746, 212.077325)"><g><path d="M 2.234375 7.609375 L 10.984375 3.328125 C 12.597656 5.984375 15.394531 7.3125 19.375 7.3125 C 21.226562 7.3125 22.945312 6.71875 24.53125 5.53125 C 26.125 4.34375 26.921875 2.519531 26.921875 0.0625 L 26.921875 -2.234375 C 25.035156 -0.140625 21.65625 0.90625 16.78125 0.90625 C 12.3125 0.90625 8.628906 -0.671875 5.734375 -3.828125 C 2.835938 -6.992188 1.390625 -10.867188 1.390625 -15.453125 C 1.390625 -20.046875 2.835938 -23.929688 5.734375 -27.109375 C 8.628906 -30.285156 12.3125 -31.875 16.78125 -31.875 C 20.769531 -31.875 24.09375 -30.644531 26.75 -28.1875 L 26.921875 -28.1875 L 26.921875 -30.96875 L 37.609375 -30.96875 L 37.609375 0.84375 C 37.609375 5.875 35.9375 9.757812 32.59375 12.5 C 29.257812 15.238281 24.851562 16.609375 19.375 16.609375 C 10.519531 16.609375 4.804688 13.609375 2.234375 7.609375 Z M 14.8125 -20.703125 C 13.425781 -19.335938 12.734375 -17.585938 12.734375 -15.453125 C 12.734375 -13.316406 13.394531 -11.578125 14.71875 -10.234375 C 16.050781 -8.890625 17.804688 -8.21875 19.984375 -8.21875 C 22.078125 -8.21875 23.796875 -8.898438 25.140625 -10.265625 C 26.492188 -11.628906 27.171875 -13.359375 27.171875 -15.453125 C 27.171875 -17.585938 26.472656 -19.335938 25.078125 -20.703125 C 23.691406 -22.078125 21.992188 -22.765625 19.984375 -22.765625 C 17.929688 -22.765625 16.207031 -22.078125 14.8125 -20.703125 Z M 14.8125 -20.703125 "/></g></g></g></svg>