<svg xmlns="http://www.w3.org/2000/svg" xmlns:xlink="http://www.w3.org/1999/xlink" width="500" zoomAndPan="magnify" viewBox="0 0 375 374.999991" height="500" preserveAspectRatio="xMidYMid meet" version="1.0"><defs><filter x="0%" y="0%" width="100%" height="100%" id="d649af1aaf"><feColorMatrix values="0 0 0 0 1 0 0 0 0 1 0 0 0 0 1 0 0 0 1 0" color-interpolation-filters="sRGB"/></filter><clipPath id="41a39df26d"><path d="M 23 23 L 352 23 L 352 352 L 23 352 Z M 23 23 " clip-rule="nonzero"/></clipPath><clipPath id="6857a2adc0"><path d="M 187.496094 -44.050781 L 419.25 187.703125 L 187.496094 419.457031 L -44.257812 187.703125 Z M 187.496094 -44.050781 " clip-rule="nonzero"/></clipPath><clipPath id="f4f224fc45"><path d="M 187.496094 -44.050781 L 419.25 187.703125 L 187.496094 419.457031 L -44.257812 187.703125 Z M 187.496094 -44.050781 " clip-rule="nonzero"/></clipPath><clipPath id="cfbbd0ecc3"><path d="M 0 9 L 366 9 L 366 375 L 0 375 Z M 0 9 " clip-rule="nonzero"/></clipPath><clipPath id="96fc6bafcc"><path d="M 187.496094 -44.050781 L 419.25 187.703125 L 187.496094 419.457031 L -44.257812 187.703125 Z M 187.496094 -44.050781 " clip-rule="nonzero"/></clipPath><clipPath id="d7d079192b"><path d="M 187.496094 -44.050781 L 419.25 187.703125 L 187.496094 419.457031 L -44.257812 187.703125 Z M 187.496094 -44.050781 " clip-rule="nonzero"/></clipPath><mask id="38357d4cd6"><g filter="url(#d649af1aaf)"><rect x="-37.5" width="450" fill="#000000" y="-37.499999" height="449.999989" fill-opacity="0.07"/></g></mask><clipPath id="8bd78ea4b0"><path d="M 37 57 L 309 57 L 309 329 L 37 329 Z M 37 57 " clip-rule="nonzero"/></clipPath><clipPath id="33599971ac"><path d="M 187.496094 -53.050781 L 419.25 178.703125 L 187.496094 410.457031 L -44.257812 178.703125 Z M 187.496094 -53.050781 " clip-rule="nonzero"/></clipPath><clipPath id="afb8bd2a56"><path d="M 187.496094 -53.050781 L 419.25 178.703125 L 187.496094 410.457031 L -44.257812 178.703125 Z M 187.496094 -53.050781 " clip-rule="nonzero"/></clipPath><clipPath id="9aa06ad363"><rect x="0" width="366" y="0" height="366"/></clipPath><clipPath id="8c493f196f"><path d="M 3 58 L 317 58 L 317 372 L 3 372 Z M 3 58 " clip-rule="nonzero"/></clipPath><clipPath id="8deb53320d"><path d="M 187.496094 -44.050781 L 419.25 187.703125 L 187.496094 419.457031 L -44.257812 187.703125 Z M 187.496094 -44.050781 " clip-rule="nonzero"/></clipPath><clipPath id="828980ef5c"><path d="M 187.496094 -44.050781 L 419.25 187.703125 L 187.496094 419.457031 L -44.257812 187.703125 Z M 187.496094 -44.050781 " clip-rule="nonzero"/></clipPath><mask id="963ce228c1"><g filter="url(#d649af1aaf)"><rect x="-37.5" width="450" fill="#000000" y="-37.499999" height="449.999989" fill-opacity="0.07"/></g></mask><clipPath id="3ba811c72c"><path d="M 46 46 L 268 46 L 268 268 L 46 268 Z M 46 46 " clip-rule="nonzero"/></clipPath><clipPath id="542a6a0ce2"><path d="M 184.496094 -102.050781 L 416.25 129.703125 L 184.496094 361.457031 L -47.257812 129.703125 Z M 184.496094 -102.050781 " clip-rule="nonzero"/></clipPath><clipPath id="8bdc1944e8"><path d="M 184.496094 -102.050781 L 416.25 129.703125 L 184.496094 361.457031 L -47.257812 129.703125 Z M 184.496094 -102.050781 " clip-rule="nonzero"/></clipPath><clipPath id="d6b1e143bd"><rect x="0" width="314" y="0" height="314"/></clipPath><clipPath id="99fd94eb30"><path d="M 24 105 L 270 105 L 270 351 L 24 351 Z M 24 105 " clip-rule="nonzero"/></clipPath><clipPath id="30d4595635"><path d="M 187.496094 -44.050781 L 419.25 187.703125 L 187.496094 419.457031 L -44.257812 187.703125 Z M 187.496094 -44.050781 " clip-rule="nonzero"/></clipPath><clipPath id="9c3e7feb41"><path d="M 187.496094 -44.050781 L 419.25 187.703125 L 187.496094 419.457031 L -44.257812 187.703125 Z M 187.496094 -44.050781 " clip-rule="nonzero"/></clipPath><mask id="5d636e3071"><g filter="url(#d649af1aaf)"><rect x="-37.5" width="450" fill="#000000" y="-37.499999" height="449.999989" fill-opacity="0.07"/></g></mask><clipPath id="c01f8a7117"><path d="M 36 36 L 210 36 L 210 210 L 36 210 Z M 36 36 " clip-rule="nonzero"/></clipPath><clipPath id="634e8fbf38"><path d="M 163.496094 -149.050781 L 395.25 82.703125 L 163.496094 314.457031 L -68.257812 82.703125 Z M 163.496094 -149.050781 " clip-rule="nonzero"/></clipPath><clipPath id="98529f851b"><path d="M 163.496094 -149.050781 L 395.25 82.703125 L 163.496094 314.457031 L -68.257812 82.703125 Z M 163.496094 -149.050781 " clip-rule="nonzero"/></clipPath><clipPath id="2fdcb9ba79"><rect x="0" width="246" y="0" height="246"/></clipPath><clipPath id="45c62b8da5"><path d="M 43 146 L 229 146 L 229 332 L 43 332 Z M 43 146 " clip-rule="nonzero"/></clipPath><clipPath id="80750d696f"><path d="M 187.496094 -44.050781 L 419.25 187.703125 L 187.496094 419.457031 L -44.257812 187.703125 Z M 187.496094 -44.050781 " clip-rule="nonzero"/></clipPath><clipPath id="c7889a4471"><path d="M 187.496094 -44.050781 L 419.25 187.703125 L 187.496094 419.457031 L -44.257812 187.703125 Z M 187.496094 -44.050781 " clip-rule="nonzero"/></clipPath><mask id="e1ca7cb1aa"><g filter="url(#d649af1aaf)"><rect x="-37.5" width="450" fill="#000000" y="-37.499999" height="449.999989" fill-opacity="0.09"/></g></mask><clipPath id="32e7373af1"><path d="M 28 27 L 159 27 L 159 158 L 28 158 Z M 28 27 " clip-rule="nonzero"/></clipPath><clipPath id="07d5db6b2a"><path d="M 144.496094 -190.050781 L 376.25 41.703125 L 144.496094 273.457031 L -87.257812 41.703125 Z M 144.496094 -190.050781 " clip-rule="nonzero"/></clipPath><clipPath id="9e704d2507"><path d="M 144.496094 -190.050781 L 376.25 41.703125 L 144.496094 273.457031 L -87.257812 41.703125 Z M 144.496094 -190.050781 " clip-rule="nonzero"/></clipPath><clipPath id="b7c1a2f3de"><rect x="0" width="186" y="0" height="186"/></clipPath></defs><g clip-path="url(#41a39df26d)"><g clip-path="url(#6857a2adc0)"><g clip-path="url(#f4f224fc45)"><path fill="#8c52ff" d="M 303.269531 303.269531 C 301.375 305.164062 299.433594 307.011719 297.449219 308.808594 C 295.464844 310.609375 293.433594 312.359375 291.363281 314.058594 C 289.292969 315.757812 287.179688 317.40625 285.027344 319.003906 C 282.875 320.597656 280.6875 322.140625 278.457031 323.628906 C 276.230469 325.117188 273.964844 326.550781 271.667969 327.929688 C 269.371094 329.308594 267.039062 330.628906 264.675781 331.890625 C 262.3125 333.152344 259.921875 334.359375 257.496094 335.503906 C 255.074219 336.648438 252.625 337.734375 250.152344 338.761719 C 247.675781 339.785156 245.175781 340.75 242.652344 341.652344 C 240.128906 342.554688 237.585938 343.394531 235.023438 344.171875 C 232.457031 344.953125 229.878906 345.664062 227.277344 346.316406 C 224.679688 346.96875 222.066406 347.554688 219.4375 348.078125 C 216.808594 348.601562 214.167969 349.058594 211.519531 349.453125 C 208.867188 349.84375 206.210938 350.171875 203.542969 350.433594 C 200.875 350.699219 198.207031 350.894531 195.527344 351.027344 C 192.851562 351.15625 190.175781 351.222656 187.496094 351.222656 C 184.816406 351.222656 182.136719 351.15625 179.460938 351.027344 C 176.785156 350.894531 174.113281 350.699219 171.445312 350.433594 C 168.78125 350.171875 166.121094 349.84375 163.472656 349.453125 C 160.820312 349.058594 158.179688 348.601562 155.554688 348.078125 C 152.925781 347.554688 150.3125 346.96875 147.710938 346.316406 C 145.113281 345.664062 142.53125 344.953125 139.96875 344.171875 C 137.402344 343.394531 134.859375 342.554688 132.335938 341.652344 C 129.8125 340.75 127.316406 339.785156 124.839844 338.761719 C 122.363281 337.734375 119.914062 336.648438 117.492188 335.503906 C 115.070312 334.359375 112.675781 333.152344 110.3125 331.890625 C 107.949219 330.628906 105.621094 329.308594 103.320312 327.929688 C 101.023438 326.550781 98.761719 325.117188 96.53125 323.628906 C 94.304688 322.140625 92.113281 320.597656 89.960938 319.003906 C 87.808594 317.40625 85.699219 315.757812 83.625 314.058594 C 81.554688 312.359375 79.527344 310.609375 77.542969 308.808594 C 75.554688 307.011719 73.617188 305.164062 71.722656 303.269531 C 69.828125 301.375 67.980469 299.433594 66.179688 297.449219 C 64.378906 295.464844 62.632812 293.433594 60.929688 291.363281 C 59.230469 289.292969 57.582031 287.179688 55.988281 285.027344 C 54.390625 282.875 52.847656 280.6875 51.359375 278.457031 C 49.871094 276.230469 48.4375 273.964844 47.058594 271.667969 C 45.683594 269.371094 44.363281 267.039062 43.097656 264.675781 C 41.835938 262.3125 40.632812 259.921875 39.484375 257.496094 C 38.339844 255.074219 37.253906 252.625 36.230469 250.152344 C 35.203125 247.675781 34.238281 245.175781 33.335938 242.652344 C 32.433594 240.128906 31.59375 237.585938 30.816406 235.023438 C 30.039062 232.457031 29.324219 229.878906 28.671875 227.277344 C 28.023438 224.679688 27.433594 222.066406 26.914062 219.4375 C 26.390625 216.808594 25.933594 214.167969 25.539062 211.519531 C 25.144531 208.867188 24.816406 206.210938 24.554688 203.542969 C 24.292969 200.875 24.09375 198.207031 23.964844 195.527344 C 23.832031 192.851562 23.765625 190.175781 23.765625 187.496094 C 23.765625 184.816406 23.832031 182.136719 23.964844 179.460938 C 24.09375 176.785156 24.292969 174.113281 24.554688 171.445312 C 24.816406 168.78125 25.144531 166.121094 25.539062 163.472656 C 25.933594 160.820312 26.390625 158.179688 26.914062 155.554688 C 27.433594 152.925781 28.023438 150.3125 28.671875 147.710938 C 29.324219 145.113281 30.039062 142.53125 30.816406 139.96875 C 31.59375 137.402344 32.433594 134.859375 33.335938 132.335938 C 34.238281 129.8125 35.203125 127.3125 36.230469 124.839844 C 37.253906 122.363281 38.339844 119.914062 39.484375 117.492188 C 40.632812 115.070312 41.835938 112.675781 43.097656 110.3125 C 44.363281 107.949219 45.683594 105.621094 47.058594 103.320312 C 48.4375 101.023438 49.871094 98.761719 51.359375 96.53125 C 52.847656 94.304688 54.390625 92.113281 55.988281 89.960938 C 57.582031 87.808594 59.230469 85.699219 60.929688 83.625 C 62.632812 81.554688 64.378906 79.527344 66.179688 77.542969 C 67.980469 75.554688 69.828125 73.617188 71.722656 71.722656 C 73.617188 69.828125 75.554688 67.980469 77.542969 66.179688 C 79.527344 64.378906 81.554688 62.632812 83.625 60.929688 C 85.699219 59.230469 87.808594 57.582031 89.960938 55.988281 C 92.113281 54.390625 94.304688 52.847656 96.53125 51.359375 C 98.761719 49.871094 101.023438 48.4375 103.320312 47.058594 C 105.621094 45.683594 107.949219 44.363281 110.3125 43.097656 C 112.675781 41.835938 115.070312 40.632812 117.492188 39.484375 C 119.914062 38.339844 122.363281 37.253906 124.839844 36.230469 C 127.316406 35.203125 129.8125 34.238281 132.335938 33.335938 C 134.859375 32.433594 137.402344 31.59375 139.96875 30.816406 C 142.53125 30.039062 145.113281 29.324219 147.710938 28.671875 C 150.3125 28.023438 152.925781 27.433594 155.554688 26.914062 C 158.179688 26.390625 160.820312 25.933594 163.472656 25.539062 C 166.121094 25.144531 168.78125 24.816406 171.445312 24.554688 C 174.113281 24.292969 176.785156 24.09375 179.460938 23.964844 C 182.136719 23.832031 184.816406 23.765625 187.496094 23.765625 C 190.175781 23.765625 192.851562 23.832031 195.527344 23.964844 C 198.207031 24.09375 200.875 24.292969 203.542969 24.554688 C 206.210938 24.816406 208.867188 25.144531 211.519531 25.539062 C 214.167969 25.933594 216.808594 26.390625 219.4375 26.914062 C 222.066406 27.433594 224.679688 28.023438 227.277344 28.671875 C 229.878906 29.324219 232.457031 30.039062 235.023438 30.816406 C 237.585938 31.59375 240.128906 32.433594 242.652344 33.335938 C 245.175781 34.238281 247.675781 35.203125 250.152344 36.230469 C 252.625 37.253906 255.074219 38.339844 257.496094 39.484375 C 259.921875 40.632812 262.3125 41.835938 264.675781 43.097656 C 267.039062 44.363281 269.371094 45.683594 271.667969 47.058594 C 273.964844 48.4375 276.230469 49.871094 278.457031 51.359375 C 280.6875 52.847656 282.875 54.390625 285.027344 55.988281 C 287.179688 57.582031 289.292969 59.230469 291.363281 60.929688 C 293.433594 62.632812 295.464844 64.378906 297.449219 66.179688 C 299.433594 67.980469 301.375 69.828125 303.269531 71.722656 C 305.164062 73.617188 307.011719 75.554688 308.808594 77.542969 C 310.609375 79.527344 312.359375 81.554688 314.058594 83.625 C 315.757812 85.699219 317.40625 87.808594 319.003906 89.960938 C 320.597656 92.113281 322.140625 94.304688 323.628906 96.53125 C 325.117188 98.761719 326.550781 101.023438 327.929688 103.320312 C 329.308594 105.621094 330.628906 107.949219 331.890625 110.3125 C 333.152344 112.675781 334.359375 115.070312 335.503906 117.492188 C 336.648438 119.914062 337.734375 122.363281 338.761719 124.839844 C 339.785156 127.3125 340.75 129.8125 341.652344 132.335938 C 342.554688 134.859375 343.394531 137.402344 344.171875 139.96875 C 344.953125 142.53125 345.664062 145.113281 346.316406 147.710938 C 346.96875 150.3125 347.554688 152.925781 348.078125 155.554688 C 348.601562 158.179688 349.058594 160.820312 349.453125 163.472656 C 349.84375 166.121094 350.171875 168.78125 350.433594 171.445312 C 350.699219 174.113281 350.894531 176.785156 351.027344 179.460938 C 351.15625 182.136719 351.222656 184.816406 351.222656 187.496094 C 351.222656 190.175781 351.15625 192.851562 351.027344 195.527344 C 350.894531 198.207031 350.699219 200.875 350.433594 203.542969 C 350.171875 206.210938 349.84375 208.867188 349.453125 211.519531 C 349.058594 214.167969 348.601562 216.808594 348.078125 219.4375 C 347.554688 222.066406 346.96875 224.679688 346.316406 227.277344 C 345.664062 229.878906 344.953125 232.457031 344.171875 235.023438 C 343.394531 237.585938 342.554688 240.128906 341.652344 242.652344 C 340.75 245.175781 339.785156 247.675781 338.761719 250.152344 C 337.734375 252.625 336.648438 255.074219 335.503906 257.496094 C 334.359375 259.921875 333.152344 262.3125 331.890625 264.675781 C 330.628906 267.039062 329.308594 269.371094 327.929688 271.667969 C 326.550781 273.964844 325.117188 276.230469 323.628906 278.457031 C 322.140625 280.6875 320.597656 282.875 319.003906 285.027344 C 317.40625 287.179688 315.757812 289.292969 314.058594 291.363281 C 312.359375 293.433594 310.609375 295.464844 308.808594 297.449219 C 307.011719 299.433594 305.164062 301.375 303.269531 303.269531 Z M 303.269531 303.269531 " fill-opacity="1" fill-rule="nonzero"/></g></g></g><g clip-path="url(#cfbbd0ecc3)"><g clip-path="url(#96fc6bafcc)"><g clip-path="url(#d7d079192b)"><g mask="url(#38357d4cd6)"><g transform="matrix(1, 0, 0, 1, 0, 9)"><g clip-path="url(#9aa06ad363)"><g clip-path="url(#8bd78ea4b0)"><g clip-path="url(#33599971ac)"><g clip-path="url(#afb8bd2a56)"><path fill="#231f20" d="M 269.046875 288.664062 C 267.476562 290.234375 265.871094 291.761719 264.226562 293.253906 C 262.582031 294.742188 260.902344 296.191406 259.1875 297.597656 C 257.472656 299.007812 255.726562 300.371094 253.941406 301.691406 C 252.160156 303.015625 250.347656 304.292969 248.503906 305.523438 C 246.65625 306.757812 244.785156 307.945312 242.882812 309.085938 C 240.976562 310.226562 239.046875 311.320312 237.089844 312.363281 C 235.132812 313.410156 233.152344 314.40625 231.148438 315.355469 C 229.140625 316.304688 227.113281 317.203125 225.066406 318.050781 C 223.015625 318.902344 220.945312 319.699219 218.855469 320.445312 C 216.769531 321.195312 214.660156 321.890625 212.539062 322.535156 C 210.414062 323.179688 208.277344 323.769531 206.125 324.308594 C 203.972656 324.847656 201.808594 325.335938 199.632812 325.765625 C 197.457031 326.199219 195.273438 326.578125 193.078125 326.90625 C 190.882812 327.230469 188.679688 327.5 186.472656 327.71875 C 184.265625 327.9375 182.054688 328.101562 179.835938 328.207031 C 177.621094 328.316406 175.402344 328.371094 173.183594 328.371094 C 170.96875 328.371094 168.75 328.316406 166.535156 328.207031 C 164.316406 328.101562 162.105469 327.9375 159.898438 327.71875 C 157.691406 327.5 155.488281 327.230469 153.292969 326.90625 C 151.097656 326.578125 148.914062 326.199219 146.738281 325.765625 C 144.5625 325.335938 142.398438 324.847656 140.246094 324.308594 C 138.09375 323.769531 135.957031 323.179688 133.832031 322.535156 C 131.710938 321.890625 129.601562 321.195312 127.515625 320.445312 C 125.425781 319.699219 123.355469 318.902344 121.304688 318.050781 C 119.257812 317.203125 117.230469 316.304688 115.222656 315.355469 C 113.21875 314.40625 111.234375 313.410156 109.28125 312.363281 C 107.324219 311.320312 105.394531 310.226562 103.488281 309.085938 C 101.585938 307.945312 99.714844 306.757812 97.867188 305.523438 C 96.023438 304.292969 94.210938 303.015625 92.429688 301.691406 C 90.644531 300.371094 88.898438 299.007812 87.183594 297.597656 C 85.46875 296.191406 83.789062 294.742188 82.144531 293.253906 C 80.5 291.761719 78.894531 290.234375 77.324219 288.664062 C 75.757812 287.097656 74.226562 285.488281 72.738281 283.847656 C 71.246094 282.203125 69.796875 280.523438 68.390625 278.808594 C 66.984375 277.09375 65.617188 275.34375 64.296875 273.5625 C 62.976562 271.78125 61.699219 269.964844 60.464844 268.121094 C 59.234375 266.277344 58.046875 264.402344 56.90625 262.5 C 55.765625 260.597656 54.671875 258.667969 53.625 256.710938 C 52.578125 254.753906 51.582031 252.773438 50.632812 250.765625 C 49.6875 248.761719 48.785156 246.734375 47.9375 244.683594 C 47.089844 242.632812 46.289062 240.566406 45.542969 238.476562 C 44.796875 236.386719 44.101562 234.28125 43.457031 232.15625 C 42.8125 230.035156 42.21875 227.898438 41.679688 225.746094 C 41.140625 223.59375 40.65625 221.429688 40.222656 219.253906 C 39.789062 217.078125 39.410156 214.890625 39.085938 212.695312 C 38.761719 210.5 38.488281 208.300781 38.269531 206.09375 C 38.054688 203.882812 37.890625 201.671875 37.78125 199.457031 C 37.671875 197.242188 37.617188 195.023438 37.617188 192.804688 C 37.617188 190.585938 37.671875 188.367188 37.78125 186.152344 C 37.890625 183.9375 38.054688 181.726562 38.269531 179.515625 C 38.488281 177.308594 38.761719 175.109375 39.085938 172.914062 C 39.410156 170.71875 39.789062 168.53125 40.222656 166.355469 C 40.65625 164.179688 41.140625 162.015625 41.679688 159.863281 C 42.21875 157.710938 42.8125 155.574219 43.457031 153.453125 C 44.101562 151.328125 44.796875 149.222656 45.542969 147.132812 C 46.289062 145.042969 47.089844 142.976562 47.9375 140.925781 C 48.785156 138.875 49.6875 136.847656 50.632812 134.84375 C 51.582031 132.835938 52.578125 130.855469 53.625 128.898438 C 54.671875 126.941406 55.765625 125.011719 56.90625 123.109375 C 58.046875 121.207031 59.234375 119.332031 60.464844 117.488281 C 61.699219 115.644531 62.976562 113.828125 64.296875 112.046875 C 65.617188 110.265625 66.984375 108.515625 68.390625 106.800781 C 69.796875 105.085938 71.246094 103.40625 72.738281 101.761719 C 74.226562 100.121094 75.757812 98.511719 77.324219 96.945312 C 78.894531 95.375 80.5 93.847656 82.144531 92.355469 C 83.789062 90.867188 85.46875 89.417969 87.183594 88.011719 C 88.898438 86.601562 90.644531 85.238281 92.429688 83.917969 C 94.210938 82.59375 96.023438 81.316406 97.867188 80.085938 C 99.714844 78.851562 101.585938 77.664062 103.488281 76.523438 C 105.394531 75.382812 107.324219 74.289062 109.28125 73.246094 C 111.234375 72.199219 113.21875 71.203125 115.222656 70.253906 C 117.230469 69.304688 119.257812 68.40625 121.304688 67.558594 C 123.355469 66.707031 125.425781 65.910156 127.515625 65.164062 C 129.601562 64.414062 131.710938 63.71875 133.832031 63.074219 C 135.957031 62.429688 138.09375 61.839844 140.246094 61.300781 C 142.398438 60.761719 144.5625 60.273438 146.738281 59.84375 C 148.914062 59.410156 151.097656 59.03125 153.292969 58.703125 C 155.488281 58.378906 157.691406 58.109375 159.898438 57.890625 C 162.105469 57.671875 164.316406 57.507812 166.535156 57.402344 C 168.75 57.292969 170.96875 57.238281 173.183594 57.238281 C 175.402344 57.238281 177.621094 57.292969 179.835938 57.402344 C 182.054688 57.507812 184.265625 57.671875 186.472656 57.890625 C 188.679688 58.109375 190.882812 58.378906 193.078125 58.703125 C 195.273438 59.03125 197.457031 59.410156 199.632812 59.84375 C 201.808594 60.273438 203.972656 60.761719 206.125 61.300781 C 208.277344 61.839844 210.414062 62.429688 212.539062 63.074219 C 214.660156 63.71875 216.769531 64.414062 218.855469 65.164062 C 220.945312 65.910156 223.015625 66.707031 225.066406 67.558594 C 227.113281 68.40625 229.140625 69.304688 231.148438 70.253906 C 233.152344 71.203125 235.132812 72.199219 237.089844 73.246094 C 239.046875 74.289062 240.976562 75.382812 242.882812 76.523438 C 244.785156 77.664062 246.65625 78.851562 248.503906 80.085938 C 250.347656 81.316406 252.160156 82.59375 253.941406 83.917969 C 255.726562 85.238281 257.472656 86.601562 259.1875 88.011719 C 260.902344 89.417969 262.582031 90.867188 264.226562 92.355469 C 265.871094 93.847656 267.476562 95.375 269.046875 96.945312 C 270.613281 98.511719 272.144531 100.121094 273.632812 101.761719 C 275.125 103.40625 276.574219 105.085938 277.980469 106.800781 C 279.386719 108.515625 280.753906 110.265625 282.074219 112.046875 C 283.394531 113.828125 284.671875 115.644531 285.90625 117.488281 C 287.136719 119.332031 288.324219 121.207031 289.464844 123.109375 C 290.605469 125.011719 291.699219 126.941406 292.746094 128.898438 C 293.789062 130.855469 294.789062 132.835938 295.738281 134.84375 C 296.683594 136.847656 297.585938 138.875 298.433594 140.925781 C 299.28125 142.976562 300.082031 145.042969 300.828125 147.132812 C 301.574219 149.222656 302.269531 151.328125 302.914062 153.453125 C 303.558594 155.574219 304.152344 157.710938 304.691406 159.863281 C 305.230469 162.015625 305.714844 164.179688 306.148438 166.355469 C 306.582031 168.53125 306.960938 170.71875 307.285156 172.914062 C 307.609375 175.109375 307.882812 177.308594 308.101562 179.515625 C 308.316406 181.726562 308.480469 183.9375 308.589844 186.152344 C 308.699219 188.367188 308.753906 190.585938 308.753906 192.804688 C 308.753906 195.023438 308.699219 197.242188 308.589844 199.457031 C 308.480469 201.671875 308.316406 203.882812 308.101562 206.09375 C 307.882812 208.300781 307.609375 210.5 307.285156 212.695312 C 306.960938 214.890625 306.582031 217.078125 306.148438 219.253906 C 305.714844 221.429688 305.230469 223.59375 304.691406 225.746094 C 304.152344 227.898438 303.558594 230.035156 302.914062 232.15625 C 302.269531 234.28125 301.574219 236.386719 300.828125 238.476562 C 300.082031 240.566406 299.28125 242.632812 298.433594 244.683594 C 297.585938 246.734375 296.683594 248.761719 295.738281 250.765625 C 294.789062 252.773438 293.789062 254.753906 292.746094 256.710938 C 291.699219 258.667969 290.605469 260.597656 289.464844 262.5 C 288.324219 264.402344 287.136719 266.277344 285.90625 268.121094 C 284.671875 269.964844 283.394531 271.78125 282.074219 273.5625 C 280.753906 275.34375 279.386719 277.09375 277.980469 278.808594 C 276.574219 280.523438 275.125 282.203125 273.632812 283.847656 C 272.144531 285.488281 270.613281 287.097656 269.046875 288.664062 Z M 269.046875 288.664062 " fill-opacity="1" fill-rule="nonzero"/></g></g></g></g></g></g></g></g></g><g clip-path="url(#8c493f196f)"><g clip-path="url(#8deb53320d)"><g clip-path="url(#828980ef5c)"><g mask="url(#963ce228c1)"><g transform="matrix(1, 0, 0, 1, 3, 58)"><g clip-path="url(#d6b1e143bd)"><g clip-path="url(#3ba811c72c)"><g clip-path="url(#542a6a0ce2)"><g clip-path="url(#8bdc1944e8)"><path fill="#231f20" d="M 235.34375 235.082031 C 234.0625 236.359375 232.753906 237.609375 231.410156 238.824219 C 230.070312 240.039062 228.699219 241.222656 227.300781 242.371094 C 225.898438 243.519531 224.472656 244.632812 223.019531 245.710938 C 221.566406 246.789062 220.085938 247.832031 218.582031 248.835938 C 217.074219 249.84375 215.546875 250.8125 213.992188 251.742188 C 212.441406 252.671875 210.867188 253.5625 209.269531 254.417969 C 207.671875 255.269531 206.058594 256.085938 204.421875 256.859375 C 202.785156 257.632812 201.128906 258.367188 199.457031 259.058594 C 197.785156 259.75 196.097656 260.402344 194.390625 261.011719 C 192.6875 261.621094 190.96875 262.191406 189.234375 262.714844 C 187.503906 263.242188 185.757812 263.722656 184.003906 264.164062 C 182.246094 264.605469 180.480469 265 178.707031 265.351562 C 176.929688 265.707031 175.148438 266.015625 173.355469 266.28125 C 171.566406 266.546875 169.769531 266.769531 167.96875 266.945312 C 166.167969 267.125 164.363281 267.257812 162.554688 267.34375 C 160.746094 267.433594 158.9375 267.480469 157.125 267.480469 C 155.316406 267.480469 153.507812 267.433594 151.699219 267.34375 C 149.890625 267.257812 148.085938 267.125 146.285156 266.945312 C 144.484375 266.769531 142.6875 266.546875 140.894531 266.28125 C 139.105469 266.015625 137.320312 265.707031 135.546875 265.351562 C 133.769531 265 132.003906 264.605469 130.25 264.164062 C 128.492188 263.722656 126.75 263.242188 125.015625 262.714844 C 123.285156 262.191406 121.566406 261.621094 119.859375 261.011719 C 118.15625 260.402344 116.46875 259.75 114.796875 259.058594 C 113.125 258.367188 111.46875 257.632812 109.832031 256.859375 C 108.195312 256.085938 106.578125 255.269531 104.984375 254.417969 C 103.386719 253.5625 101.8125 252.671875 100.257812 251.742188 C 98.707031 250.8125 97.175781 249.84375 95.671875 248.835938 C 94.167969 247.832031 92.6875 246.789062 91.234375 245.710938 C 89.777344 244.632812 88.351562 243.519531 86.953125 242.371094 C 85.554688 241.222656 84.183594 240.039062 82.839844 238.824219 C 81.5 237.609375 80.191406 236.359375 78.910156 235.082031 C 77.628906 233.800781 76.382812 232.488281 75.164062 231.148438 C 73.949219 229.808594 72.769531 228.4375 71.621094 227.039062 C 70.472656 225.636719 69.359375 224.210938 68.28125 222.757812 C 67.199219 221.304688 66.160156 219.824219 65.152344 218.316406 C 64.148438 216.8125 63.179688 215.285156 62.25 213.730469 C 61.316406 212.179688 60.425781 210.605469 59.574219 209.007812 C 58.71875 207.410156 57.90625 205.792969 57.132812 204.15625 C 56.359375 202.519531 55.625 200.867188 54.929688 199.195312 C 54.238281 197.523438 53.585938 195.832031 52.976562 194.128906 C 52.367188 192.425781 51.800781 190.707031 51.273438 188.972656 C 50.75 187.242188 50.265625 185.496094 49.828125 183.742188 C 49.386719 181.984375 48.988281 180.21875 48.636719 178.445312 C 48.285156 176.667969 47.972656 174.886719 47.707031 173.09375 C 47.441406 171.304688 47.222656 169.507812 47.042969 167.707031 C 46.867188 165.90625 46.734375 164.101562 46.644531 162.292969 C 46.554688 160.484375 46.511719 158.675781 46.511719 156.863281 C 46.511719 155.054688 46.554688 153.246094 46.644531 151.4375 C 46.734375 149.628906 46.867188 147.824219 47.042969 146.023438 C 47.222656 144.21875 47.441406 142.425781 47.707031 140.632812 C 47.972656 138.84375 48.285156 137.058594 48.636719 135.285156 C 48.988281 133.507812 49.386719 131.742188 49.828125 129.988281 C 50.265625 128.230469 50.75 126.488281 51.273438 124.753906 C 51.800781 123.023438 52.367188 121.304688 52.976562 119.597656 C 53.585938 117.894531 54.238281 116.207031 54.929688 114.535156 C 55.625 112.859375 56.359375 111.207031 57.132812 109.570312 C 57.90625 107.933594 58.71875 106.316406 59.574219 104.71875 C 60.425781 103.125 61.316406 101.550781 62.25 99.996094 C 63.179688 98.445312 64.148438 96.914062 65.152344 95.410156 C 66.160156 93.90625 67.199219 92.425781 68.28125 90.96875 C 69.359375 89.515625 70.472656 88.089844 71.621094 86.691406 C 72.769531 85.292969 73.949219 83.921875 75.164062 82.578125 C 76.382812 81.238281 77.628906 79.925781 78.910156 78.648438 C 80.191406 77.367188 81.5 76.121094 82.839844 74.902344 C 84.183594 73.6875 85.554688 72.503906 86.953125 71.355469 C 88.351562 70.207031 89.777344 69.09375 91.234375 68.015625 C 92.6875 66.9375 94.167969 65.898438 95.671875 64.890625 C 97.175781 63.886719 98.707031 62.917969 100.257812 61.984375 C 101.8125 61.054688 103.386719 60.164062 104.984375 59.308594 C 106.578125 58.457031 108.195312 57.644531 109.832031 56.871094 C 111.46875 56.09375 113.125 55.363281 114.796875 54.667969 C 116.46875 53.976562 118.15625 53.324219 119.859375 52.714844 C 121.566406 52.105469 123.285156 51.539062 125.015625 51.011719 C 126.75 50.488281 128.492188 50.003906 130.25 49.5625 C 132.003906 49.125 133.769531 48.726562 135.546875 48.375 C 137.320312 48.019531 139.105469 47.710938 140.894531 47.445312 C 142.6875 47.179688 144.484375 46.960938 146.285156 46.78125 C 148.085938 46.605469 149.890625 46.472656 151.699219 46.382812 C 153.507812 46.292969 155.316406 46.25 157.125 46.25 C 158.9375 46.25 160.746094 46.292969 162.554688 46.382812 C 164.363281 46.472656 166.167969 46.605469 167.96875 46.78125 C 169.769531 46.960938 171.566406 47.179688 173.355469 47.445312 C 175.148438 47.710938 176.929688 48.019531 178.707031 48.375 C 180.480469 48.726562 182.246094 49.125 184.003906 49.5625 C 185.757812 50.003906 187.503906 50.488281 189.234375 51.011719 C 190.96875 51.539062 192.6875 52.105469 194.390625 52.714844 C 196.097656 53.324219 197.785156 53.976562 199.457031 54.667969 C 201.128906 55.363281 202.785156 56.09375 204.421875 56.871094 C 206.058594 57.644531 207.671875 58.457031 209.269531 59.308594 C 210.867188 60.164062 212.441406 61.054688 213.992188 61.984375 C 215.546875 62.917969 217.074219 63.886719 218.582031 64.890625 C 220.085938 65.898438 221.566406 66.9375 223.019531 68.015625 C 224.472656 69.09375 225.898438 70.207031 227.300781 71.355469 C 228.699219 72.503906 230.070312 73.6875 231.410156 74.902344 C 232.753906 76.121094 234.0625 77.367188 235.34375 78.648438 C 236.621094 79.925781 237.871094 81.238281 239.085938 82.578125 C 240.300781 83.921875 241.484375 85.292969 242.632812 86.691406 C 243.78125 88.089844 244.894531 89.515625 245.972656 90.96875 C 247.050781 92.425781 248.09375 93.90625 249.097656 95.410156 C 250.105469 96.914062 251.074219 98.445312 252.003906 99.996094 C 252.933594 101.550781 253.828125 103.125 254.679688 104.71875 C 255.535156 106.316406 256.347656 107.933594 257.121094 109.570312 C 257.894531 111.207031 258.628906 112.859375 259.320312 114.535156 C 260.015625 116.207031 260.664062 117.894531 261.273438 119.597656 C 261.886719 121.304688 262.453125 123.023438 262.976562 124.753906 C 263.503906 126.488281 263.984375 128.230469 264.425781 129.988281 C 264.867188 131.742188 265.261719 133.507812 265.617188 135.285156 C 265.96875 137.058594 266.277344 138.84375 266.542969 140.632812 C 266.808594 142.425781 267.03125 144.21875 267.207031 146.023438 C 267.386719 147.824219 267.519531 149.628906 267.609375 151.4375 C 267.695312 153.246094 267.742188 155.054688 267.742188 156.863281 C 267.742188 158.675781 267.695312 160.484375 267.609375 162.292969 C 267.519531 164.101562 267.386719 165.90625 267.207031 167.707031 C 267.03125 169.507812 266.808594 171.304688 266.542969 173.09375 C 266.277344 174.886719 265.96875 176.667969 265.617188 178.445312 C 265.261719 180.21875 264.867188 181.984375 264.425781 183.742188 C 263.984375 185.496094 263.503906 187.242188 262.976562 188.972656 C 262.453125 190.707031 261.886719 192.425781 261.273438 194.128906 C 260.664062 195.832031 260.015625 197.523438 259.320312 199.195312 C 258.628906 200.867188 257.894531 202.519531 257.121094 204.15625 C 256.347656 205.792969 255.535156 207.410156 254.679688 209.007812 C 253.828125 210.605469 252.933594 212.179688 252.003906 213.730469 C 251.074219 215.285156 250.105469 216.8125 249.097656 218.316406 C 248.09375 219.824219 247.050781 221.304688 245.972656 222.757812 C 244.894531 224.210938 243.78125 225.636719 242.632812 227.039062 C 241.484375 228.4375 240.300781 229.808594 239.085938 231.148438 C 237.871094 232.488281 236.621094 233.800781 235.34375 235.082031 Z M 235.34375 235.082031 " fill-opacity="1" fill-rule="nonzero"/></g></g></g></g></g></g></g></g></g><g clip-path="url(#99fd94eb30)"><g clip-path="url(#30d4595635)"><g clip-path="url(#9c3e7feb41)"><g mask="url(#5d636e3071)"><g transform="matrix(1, 0, 0, 1, 24, 105)"><g clip-path="url(#2fdcb9ba79)"><g clip-path="url(#c01f8a7117)"><g clip-path="url(#634e8fbf38)"><g clip-path="url(#98529f851b)"><path fill="#231f20" d="M 184.101562 183.960938 C 183.105469 184.957031 182.082031 185.933594 181.035156 186.878906 C 179.988281 187.828125 178.917969 188.75 177.828125 189.648438 C 176.734375 190.542969 175.621094 191.414062 174.488281 192.253906 C 173.351562 193.09375 172.195312 193.910156 171.023438 194.695312 C 169.847656 195.476562 168.65625 196.234375 167.441406 196.960938 C 166.230469 197.6875 165.003906 198.382812 163.757812 199.046875 C 162.511719 199.714844 161.25 200.347656 159.972656 200.953125 C 158.695312 201.558594 157.40625 202.128906 156.097656 202.671875 C 154.792969 203.210938 153.476562 203.71875 152.148438 204.195312 C 150.816406 204.671875 149.476562 205.113281 148.125 205.523438 C 146.773438 205.933594 145.410156 206.3125 144.039062 206.652344 C 142.671875 206.996094 141.292969 207.304688 139.90625 207.582031 C 138.519531 207.859375 137.128906 208.097656 135.734375 208.304688 C 134.335938 208.515625 132.933594 208.6875 131.527344 208.824219 C 130.121094 208.964844 128.714844 209.066406 127.300781 209.136719 C 125.890625 209.207031 124.480469 209.242188 123.066406 209.242188 C 121.65625 209.242188 120.242188 209.207031 118.832031 209.136719 C 117.421875 209.066406 116.011719 208.964844 114.605469 208.824219 C 113.199219 208.6875 111.800781 208.515625 110.402344 208.304688 C 109.003906 208.097656 107.613281 207.859375 106.226562 207.582031 C 104.839844 207.304688 103.464844 206.996094 102.09375 206.652344 C 100.722656 206.3125 99.363281 205.933594 98.011719 205.523438 C 96.660156 205.113281 95.316406 204.671875 93.988281 204.195312 C 92.65625 203.71875 91.339844 203.210938 90.035156 202.671875 C 88.730469 202.128906 87.4375 201.558594 86.160156 200.953125 C 84.882812 200.347656 83.621094 199.714844 82.378906 199.046875 C 81.132812 198.382812 79.902344 197.6875 78.691406 196.960938 C 77.480469 196.234375 76.285156 195.476562 75.113281 194.695312 C 73.9375 193.910156 72.78125 193.09375 71.648438 192.253906 C 70.511719 191.414062 69.398438 190.542969 68.308594 189.648438 C 67.214844 188.75 66.144531 187.828125 65.097656 186.878906 C 64.054688 185.933594 63.03125 184.957031 62.03125 183.960938 C 61.03125 182.960938 60.058594 181.9375 59.109375 180.890625 C 58.160156 179.84375 57.238281 178.773438 56.34375 177.683594 C 55.445312 176.589844 54.578125 175.476562 53.734375 174.34375 C 52.894531 173.207031 52.082031 172.054688 51.296875 170.878906 C 50.511719 169.703125 49.757812 168.511719 49.03125 167.300781 C 48.304688 166.085938 47.609375 164.859375 46.941406 163.613281 C 46.277344 162.367188 45.640625 161.105469 45.035156 159.828125 C 44.433594 158.550781 43.859375 157.261719 43.320312 155.957031 C 42.777344 154.648438 42.269531 153.332031 41.796875 152.003906 C 41.320312 150.671875 40.875 149.332031 40.464844 147.980469 C 40.054688 146.628906 39.679688 145.265625 39.335938 143.898438 C 38.992188 142.527344 38.683594 141.148438 38.40625 139.761719 C 38.132812 138.378906 37.890625 136.984375 37.683594 135.589844 C 37.476562 134.191406 37.304688 132.789062 37.164062 131.382812 C 37.027344 129.976562 36.921875 128.570312 36.851562 127.160156 C 36.785156 125.746094 36.75 124.335938 36.75 122.921875 C 36.75 121.511719 36.785156 120.097656 36.851562 118.6875 C 36.921875 117.277344 37.027344 115.867188 37.164062 114.460938 C 37.304688 113.058594 37.476562 111.65625 37.683594 110.257812 C 37.890625 108.859375 38.132812 107.46875 38.40625 106.082031 C 38.683594 104.699219 38.992188 103.320312 39.335938 101.949219 C 39.679688 100.578125 40.054688 99.21875 40.464844 97.867188 C 40.875 96.515625 41.320312 95.171875 41.796875 93.84375 C 42.269531 92.511719 42.777344 91.195312 43.320312 89.890625 C 43.859375 88.585938 44.433594 87.292969 45.035156 86.019531 C 45.640625 84.742188 46.277344 83.480469 46.941406 82.234375 C 47.609375 80.988281 48.304688 79.757812 49.03125 78.546875 C 49.757812 77.335938 50.511719 76.140625 51.296875 74.96875 C 52.082031 73.792969 52.894531 72.636719 53.734375 71.503906 C 54.578125 70.371094 55.445312 69.253906 56.34375 68.164062 C 57.238281 67.070312 58.160156 66.003906 59.109375 64.957031 C 60.058594 63.910156 61.03125 62.886719 62.03125 61.886719 C 63.03125 60.886719 64.054688 59.914062 65.097656 58.964844 C 66.144531 58.015625 67.214844 57.09375 68.308594 56.199219 C 69.398438 55.300781 70.511719 54.433594 71.648438 53.59375 C 72.78125 52.75 73.9375 51.9375 75.113281 51.152344 C 76.285156 50.367188 77.480469 49.613281 78.691406 48.886719 C 79.902344 48.160156 81.132812 47.464844 82.378906 46.796875 C 83.621094 46.132812 84.882812 45.496094 86.160156 44.894531 C 87.4375 44.289062 88.730469 43.714844 90.035156 43.175781 C 91.339844 42.636719 92.65625 42.128906 93.988281 41.652344 C 95.316406 41.175781 96.660156 40.730469 98.011719 40.324219 C 99.363281 39.914062 100.722656 39.535156 102.09375 39.191406 C 103.464844 38.847656 104.839844 38.539062 106.226562 38.265625 C 107.613281 37.988281 109.003906 37.746094 110.402344 37.539062 C 111.800781 37.332031 113.199219 37.160156 114.605469 37.019531 C 116.011719 36.882812 117.421875 36.777344 118.832031 36.710938 C 120.242188 36.640625 121.65625 36.605469 123.066406 36.605469 C 124.480469 36.605469 125.890625 36.640625 127.300781 36.710938 C 128.714844 36.777344 130.121094 36.882812 131.527344 37.019531 C 132.933594 37.160156 134.335938 37.332031 135.730469 37.539062 C 137.128906 37.746094 138.519531 37.988281 139.90625 38.265625 C 141.292969 38.539062 142.671875 38.847656 144.039062 39.191406 C 145.410156 39.535156 146.773438 39.914062 148.125 40.324219 C 149.476562 40.730469 150.816406 41.175781 152.148438 41.652344 C 153.476562 42.128906 154.792969 42.636719 156.097656 43.175781 C 157.40625 43.714844 158.695312 44.289062 159.972656 44.894531 C 161.25 45.496094 162.511719 46.132812 163.757812 46.796875 C 165.003906 47.464844 166.230469 48.160156 167.441406 48.886719 C 168.65625 49.613281 169.847656 50.367188 171.023438 51.152344 C 172.195312 51.9375 173.351562 52.75 174.484375 53.59375 C 175.621094 54.433594 176.734375 55.300781 177.828125 56.199219 C 178.917969 57.09375 179.988281 58.015625 181.035156 58.964844 C 182.082031 59.914062 183.105469 60.886719 184.101562 61.886719 C 185.101562 62.886719 186.074219 63.910156 187.023438 64.957031 C 187.972656 66.003906 188.894531 67.070312 189.792969 68.164062 C 190.6875 69.253906 191.554688 70.371094 192.398438 71.503906 C 193.238281 72.636719 194.050781 73.792969 194.835938 74.96875 C 195.621094 76.140625 196.378906 77.335938 197.105469 78.546875 C 197.832031 79.757812 198.527344 80.988281 199.191406 82.234375 C 199.859375 83.480469 200.492188 84.742188 201.097656 86.019531 C 201.703125 87.292969 202.273438 88.585938 202.8125 89.890625 C 203.355469 91.195312 203.863281 92.511719 204.339844 93.84375 C 204.816406 95.171875 205.257812 96.515625 205.667969 97.867188 C 206.078125 99.21875 206.453125 100.578125 206.796875 101.949219 C 207.140625 103.320312 207.449219 104.699219 207.726562 106.082031 C 208 107.46875 208.242188 108.859375 208.449219 110.257812 C 208.65625 111.65625 208.832031 113.058594 208.96875 114.460938 C 209.109375 115.867188 209.210938 117.277344 209.28125 118.6875 C 209.351562 120.097656 209.382812 121.511719 209.382812 122.921875 C 209.382812 124.335938 209.351562 125.746094 209.28125 127.160156 C 209.210938 128.570312 209.109375 129.976562 208.96875 131.382812 C 208.832031 132.789062 208.65625 134.191406 208.449219 135.589844 C 208.242188 136.984375 208 138.378906 207.726562 139.761719 C 207.449219 141.148438 207.140625 142.527344 206.796875 143.898438 C 206.453125 145.265625 206.078125 146.628906 205.667969 147.980469 C 205.257812 149.332031 204.816406 150.671875 204.339844 152.003906 C 203.863281 153.332031 203.355469 154.648438 202.8125 155.957031 C 202.273438 157.261719 201.699219 158.550781 201.097656 159.828125 C 200.492188 161.105469 199.859375 162.367188 199.191406 163.613281 C 198.527344 164.859375 197.832031 166.085938 197.105469 167.300781 C 196.378906 168.511719 195.621094 169.703125 194.835938 170.878906 C 194.050781 172.054688 193.238281 173.207031 192.398438 174.34375 C 191.554688 175.476562 190.6875 176.589844 189.792969 177.683594 C 188.894531 178.773438 187.972656 179.84375 187.023438 180.890625 C 186.074219 181.9375 185.101562 182.960938 184.101562 183.960938 Z M 184.101562 183.960938 " fill-opacity="1" fill-rule="nonzero"/></g></g></g></g></g></g></g></g></g><g clip-path="url(#45c62b8da5)"><g clip-path="url(#80750d696f)"><g clip-path="url(#c7889a4471)"><g mask="url(#e1ca7cb1aa)"><g transform="matrix(1, 0, 0, 1, 43, 146)"><g clip-path="url(#b7c1a2f3de)"><g clip-path="url(#32e7373af1)"><g clip-path="url(#07d5db6b2a)"><g clip-path="url(#9e704d2507)"><path fill="#231f20" d="M 139.03125 138.835938 C 138.277344 139.589844 137.507812 140.320312 136.722656 141.035156 C 135.933594 141.75 135.128906 142.445312 134.304688 143.117188 C 133.484375 143.792969 132.648438 144.449219 131.792969 145.082031 C 130.9375 145.714844 130.070312 146.328125 129.1875 146.917969 C 128.300781 147.507812 127.402344 148.078125 126.492188 148.621094 C 125.578125 149.167969 124.65625 149.695312 123.71875 150.195312 C 122.78125 150.695312 121.828125 151.171875 120.867188 151.628906 C 119.90625 152.082031 118.9375 152.515625 117.953125 152.921875 C 116.972656 153.328125 115.980469 153.710938 114.976562 154.066406 C 113.976562 154.425781 112.96875 154.761719 111.949219 155.070312 C 110.933594 155.378906 109.910156 155.660156 108.878906 155.917969 C 107.847656 156.175781 106.808594 156.410156 105.765625 156.617188 C 104.722656 156.824219 103.675781 157.007812 102.625 157.164062 C 101.574219 157.320312 100.519531 157.449219 99.460938 157.554688 C 98.402344 157.65625 97.339844 157.734375 96.28125 157.789062 C 95.21875 157.839844 94.15625 157.867188 93.089844 157.867188 C 92.027344 157.867188 90.964844 157.839844 89.902344 157.789062 C 88.84375 157.734375 87.78125 157.65625 86.722656 157.554688 C 85.664062 157.449219 84.609375 157.320312 83.558594 157.164062 C 82.507812 157.007812 81.460938 156.824219 80.417969 156.617188 C 79.375 156.410156 78.335938 156.175781 77.304688 155.917969 C 76.273438 155.660156 75.25 155.378906 74.234375 155.070312 C 73.214844 154.761719 72.207031 154.425781 71.203125 154.066406 C 70.203125 153.710938 69.210938 153.328125 68.230469 152.921875 C 67.246094 152.515625 66.277344 152.082031 65.316406 151.628906 C 64.351562 151.171875 63.402344 150.695312 62.464844 150.195312 C 61.527344 149.695312 60.605469 149.167969 59.691406 148.621094 C 58.78125 148.078125 57.882812 147.507812 56.996094 146.917969 C 56.113281 146.328125 55.246094 145.714844 54.390625 145.082031 C 53.535156 144.449219 52.699219 143.792969 51.875 143.117188 C 51.054688 142.445312 50.25 141.75 49.460938 141.035156 C 48.675781 140.320312 47.90625 139.589844 47.152344 138.835938 C 46.402344 138.085938 45.667969 137.316406 44.953125 136.527344 C 44.238281 135.738281 43.546875 134.933594 42.871094 134.113281 C 42.195312 133.292969 41.542969 132.453125 40.910156 131.597656 C 40.277344 130.746094 39.664062 129.875 39.074219 128.992188 C 38.484375 128.109375 37.914062 127.210938 37.367188 126.296875 C 36.820312 125.386719 36.296875 124.460938 35.796875 123.523438 C 35.292969 122.585938 34.816406 121.636719 34.363281 120.675781 C 33.90625 119.714844 33.476562 118.742188 33.070312 117.761719 C 32.664062 116.777344 32.28125 115.785156 31.921875 114.785156 C 31.5625 113.785156 31.230469 112.773438 30.921875 111.757812 C 30.613281 110.738281 30.328125 109.714844 30.070312 108.683594 C 29.8125 107.652344 29.578125 106.617188 29.371094 105.574219 C 29.164062 104.53125 28.984375 103.484375 28.828125 102.429688 C 28.671875 101.378906 28.542969 100.324219 28.4375 99.265625 C 28.332031 98.207031 28.253906 97.148438 28.203125 96.085938 C 28.148438 95.023438 28.125 93.960938 28.125 92.898438 C 28.125 91.835938 28.148438 90.773438 28.203125 89.710938 C 28.253906 88.648438 28.332031 87.589844 28.4375 86.53125 C 28.542969 85.472656 28.671875 84.417969 28.828125 83.367188 C 28.984375 82.3125 29.164062 81.265625 29.371094 80.222656 C 29.578125 79.179688 29.8125 78.144531 30.070312 77.113281 C 30.328125 76.082031 30.613281 75.058594 30.921875 74.039062 C 31.230469 73.023438 31.5625 72.011719 31.921875 71.011719 C 32.28125 70.011719 32.664062 69.019531 33.070312 68.035156 C 33.476562 67.054688 33.90625 66.082031 34.363281 65.121094 C 34.816406 64.160156 35.292969 63.210938 35.796875 62.273438 C 36.296875 61.335938 36.820312 60.410156 37.367188 59.5 C 37.914062 58.585938 38.484375 57.6875 39.074219 56.804688 C 39.664062 55.921875 40.277344 55.050781 40.910156 54.199219 C 41.542969 53.34375 42.195312 52.503906 42.871094 51.683594 C 43.546875 50.863281 44.238281 50.058594 44.953125 49.269531 C 45.667969 48.480469 46.402344 47.710938 47.152344 46.960938 C 47.90625 46.207031 48.675781 45.476562 49.460938 44.761719 C 50.25 44.046875 51.054688 43.351562 51.875 42.679688 C 52.699219 42.003906 53.535156 41.347656 54.390625 40.714844 C 55.246094 40.082031 56.113281 39.472656 56.996094 38.878906 C 57.882812 38.289062 58.78125 37.71875 59.691406 37.175781 C 60.605469 36.628906 61.527344 36.105469 62.464844 35.601562 C 63.402344 35.101562 64.351562 34.625 65.3125 34.167969 C 66.277344 33.714844 67.246094 33.285156 68.230469 32.875 C 69.210938 32.46875 70.203125 32.085938 71.203125 31.730469 C 72.207031 31.371094 73.214844 31.039062 74.234375 30.730469 C 75.25 30.417969 76.273438 30.136719 77.304688 29.878906 C 78.335938 29.621094 79.375 29.386719 80.417969 29.179688 C 81.460938 28.972656 82.507812 28.789062 83.558594 28.632812 C 84.609375 28.476562 85.664062 28.347656 86.722656 28.242188 C 87.78125 28.140625 88.84375 28.0625 89.902344 28.007812 C 90.964844 27.957031 92.027344 27.929688 93.089844 27.929688 C 94.15625 27.929688 95.21875 27.957031 96.28125 28.007812 C 97.339844 28.0625 98.402344 28.140625 99.460938 28.242188 C 100.519531 28.347656 101.574219 28.476562 102.625 28.632812 C 103.675781 28.789062 104.722656 28.972656 105.765625 29.179688 C 106.808594 29.386719 107.847656 29.621094 108.878906 29.878906 C 109.910156 30.136719 110.933594 30.417969 111.949219 30.726562 C 112.96875 31.039062 113.976562 31.371094 114.980469 31.730469 C 115.980469 32.085938 116.972656 32.46875 117.953125 32.875 C 118.9375 33.285156 119.90625 33.714844 120.867188 34.167969 C 121.828125 34.625 122.78125 35.101562 123.71875 35.601562 C 124.65625 36.101562 125.578125 36.628906 126.492188 37.175781 C 127.402344 37.71875 128.300781 38.289062 129.1875 38.878906 C 130.070312 39.472656 130.9375 40.082031 131.792969 40.714844 C 132.648438 41.347656 133.484375 42.003906 134.304688 42.679688 C 135.128906 43.351562 135.933594 44.046875 136.722656 44.761719 C 137.507812 45.476562 138.277344 46.207031 139.03125 46.960938 C 139.78125 47.710938 140.515625 48.480469 141.230469 49.269531 C 141.945312 50.058594 142.636719 50.863281 143.3125 51.683594 C 143.988281 52.503906 144.640625 53.34375 145.273438 54.199219 C 145.90625 55.050781 146.519531 55.921875 147.109375 56.804688 C 147.699219 57.6875 148.269531 58.585938 148.816406 59.5 C 149.363281 60.410156 149.886719 61.335938 150.386719 62.273438 C 150.890625 63.210938 151.367188 64.160156 151.820312 65.121094 C 152.277344 66.082031 152.707031 67.054688 153.113281 68.035156 C 153.519531 69.019531 153.902344 70.011719 154.261719 71.011719 C 154.621094 72.011719 154.953125 73.023438 155.261719 74.039062 C 155.570312 75.058594 155.855469 76.082031 156.113281 77.113281 C 156.371094 78.144531 156.601562 79.179688 156.8125 80.222656 C 157.019531 81.265625 157.199219 82.3125 157.355469 83.367188 C 157.511719 84.417969 157.640625 85.472656 157.746094 86.53125 C 157.851562 87.589844 157.929688 88.648438 157.980469 89.710938 C 158.03125 90.773438 158.058594 91.835938 158.058594 92.898438 C 158.058594 93.960938 158.03125 95.023438 157.980469 96.085938 C 157.929688 97.148438 157.851562 98.207031 157.746094 99.265625 C 157.640625 100.324219 157.511719 101.378906 157.355469 102.429688 C 157.199219 103.484375 157.019531 104.53125 156.8125 105.574219 C 156.601562 106.617188 156.371094 107.652344 156.113281 108.683594 C 155.855469 109.714844 155.570312 110.738281 155.261719 111.757812 C 154.953125 112.773438 154.621094 113.785156 154.261719 114.785156 C 153.902344 115.785156 153.519531 116.777344 153.113281 117.761719 C 152.707031 118.742188 152.277344 119.714844 151.820312 120.675781 C 151.367188 121.636719 150.890625 122.585938 150.386719 123.523438 C 149.886719 124.460938 149.363281 125.386719 148.816406 126.296875 C 148.269531 127.210938 147.699219 128.109375 147.109375 128.992188 C 146.519531 129.875 145.90625 130.746094 145.273438 131.597656 C 144.640625 132.453125 143.988281 133.292969 143.3125 134.113281 C 142.636719 134.933594 141.945312 135.738281 141.230469 136.527344 C 140.515625 137.316406 139.78125 138.085938 139.03125 138.835938 Z M 139.03125 138.835938 " fill-opacity="1" fill-rule="nonzero"/></g></g></g></g></g></g></g></g></g></svg>